<svg width="22" height="22" viewBox="0 0 22 22" fill="none" xmlns="http://www.w3.org/2000/svg">
<path opacity="0.7" d="M8.45833 0H1.20833C0.887863 0 0.580519 0.127306 0.353913 0.353913C0.127306 0.580519 0 0.887863 0 1.20833V8.45833C0 8.7788 0.127306 9.08615 0.353913 9.31275C0.580519 9.53936 0.887863 9.66667 1.20833 9.66667H8.45833C8.7788 9.66667 9.08615 9.53936 9.31275 9.31275C9.53936 9.08615 9.66667 8.7788 9.66667 8.45833V1.20833C9.66667 0.887863 9.53936 0.580519 9.31275 0.353913C9.08615 0.127306 8.7788 0 8.45833 0ZM7.25 7.25H2.41667V2.41667H7.25V7.25ZM20.5417 0H13.2917C12.9712 0 12.6639 0.127306 12.4372 0.353913C12.2106 0.580519 12.0833 0.887863 12.0833 1.20833V8.45833C12.0833 8.7788 12.2106 9.08615 12.4372 9.31275C12.6639 9.53936 12.9712 9.66667 13.2917 9.66667H20.5417C20.8621 9.66667 21.1695 9.53936 21.3961 9.31275C21.6227 9.08615 21.75 8.7788 21.75 8.45833V1.20833C21.75 0.887863 21.6227 0.580519 21.3961 0.353913C21.1695 0.127306 20.8621 0 20.5417 0ZM19.3333 7.25H14.5V2.41667H19.3333V7.25ZM8.45833 12.0833H1.20833C0.887863 12.0833 0.580519 12.2106 0.353913 12.4372C0.127306 12.6639 0 12.9712 0 13.2917V20.5417C0 20.8621 0.127306 21.1695 0.353913 21.3961C0.580519 21.6227 0.887863 21.75 1.20833 21.75H8.45833C8.7788 21.75 9.08615 21.6227 9.31275 21.3961C9.53936 21.1695 9.66667 20.8621 9.66667 20.5417V13.2917C9.66667 12.9712 9.53936 12.6639 9.31275 12.4372C9.08615 12.2106 8.7788 12.0833 8.45833 12.0833ZM7.25 19.3333H2.41667V14.5H7.25V19.3333ZM16.9167 12.0833C14.2511 12.0833 12.0833 14.2511 12.0833 16.9167C12.0833 19.5823 14.2511 21.75 16.9167 21.75C19.5823 21.75 21.75 19.5823 21.75 16.9167C21.75 14.2511 19.5823 12.0833 16.9167 12.0833ZM16.9167 19.3333C15.5839 19.3333 14.5 18.2495 14.5 16.9167C14.5 15.5839 15.5839 14.5 16.9167 14.5C18.2495 14.5 19.3333 15.5839 19.3333 16.9167C19.3333 18.2495 18.2495 19.3333 16.9167 19.3333Z" fill="#444444"/>
</svg>
