<svg width="20" height="22" viewBox="0 0 20 22" fill="none" xmlns="http://www.w3.org/2000/svg">
<path opacity="0.7" d="M0 3C0 1.34315 1.34315 0 3 0H13.8C15.4568 0 16.8 1.34315 16.8 3V6H15.6V3C15.6 2.00588 14.7941 1.2 13.8 1.2H3C2.00588 1.2 1.2 2.00588 1.2 3V13.8C1.2 14.7941 2.00588 15.6 3 15.6H7.2V16.8H3C1.34315 16.8 0 15.4568 0 13.8V3ZM4.2 6H10.8C9.7338 6 8.77585 6.4635 8.11667 7.2H4.2C3.86863 7.2 3.6 6.93137 3.6 6.6C3.6 6.26863 3.86863 6 4.2 6ZM7.40485 8.4H4.2C3.86863 8.4 3.6 8.66863 3.6 9C3.6 9.33137 3.86863 9.6 4.2 9.6H7.2C7.2 9.17923 7.27218 8.77534 7.40485 8.4ZM4.2 3.6C3.86863 3.6 3.6 3.86863 3.6 4.2C3.6 4.53137 3.86863 4.8 4.2 4.8H12.6C12.9313 4.8 13.2 4.53137 13.2 4.2C13.2 3.86863 12.9313 3.6 12.6 3.6H4.2ZM19.2 9.6C19.2 8.27452 18.1255 7.2 16.8 7.2H10.8C9.47451 7.2 8.4 8.27452 8.4 9.6V19.2C8.4 20.5255 9.47451 21.6 10.8 21.6H18.6C18.9313 21.6 19.2 21.3313 19.2 21C19.2 20.6687 18.9313 20.4 18.6 20.4H10.8C10.1372 20.4 9.6 19.8628 9.6 19.2V19.1963H18.6C18.9313 19.1963 19.2 18.9277 19.2 18.5963V9.6ZM9.6 17.9963V9.6C9.6 8.93725 10.1372 8.4 10.8 8.4H16.8C17.4628 8.4 18 8.93726 18 9.6V17.9963H9.6Z" fill="#444444"/>
</svg>
